<svg width="21" height="20" viewBox="0 0 21 20" fill="none" xmlns="http://www.w3.org/2000/svg">
<g clip-path="url(#clip0_45_1898)">
<path d="M4.94442 10.5558V6.11133H3.27775C2.83572 6.11133 2.4118 6.28692 2.09924 6.59948C1.78668 6.91204 1.61108 7.33597 1.61108 7.77799V17.778C1.61191 17.8812 1.64145 17.9821 1.6964 18.0694C1.75135 18.1567 1.82954 18.227 1.9222 18.2724C2.01146 18.313 2.10988 18.3293 2.20746 18.3195C2.30504 18.3098 2.39829 18.2744 2.47775 18.2169L5.33886 16.1113H12.8055C13.0161 16.1176 13.2257 16.0805 13.4213 16.0024C13.617 15.9243 13.7945 15.8069 13.943 15.6575C14.0914 15.508 14.2076 15.3296 14.2843 15.1334C14.361 14.9372 14.3966 14.7274 14.3889 14.5169V13.8891H8.27775C7.3937 13.8891 6.54585 13.5379 5.92073 12.9128C5.29561 12.2877 4.94442 11.4398 4.94442 10.5558Z" fill="#DD1836"/>
<path d="M17.7222 2.22217H8.27775C7.83572 2.22217 7.4118 2.39776 7.09924 2.71032C6.78668 3.02288 6.61108 3.44681 6.61108 3.88883V10.5555C6.61108 10.9975 6.78668 11.4215 7.09924 11.734C7.4118 12.0466 7.83572 12.2222 8.27775 12.2222H15.8055L18.4611 14.2833C18.54 14.3416 18.633 14.3781 18.7306 14.3888C18.8282 14.3995 18.9269 14.3842 19.0166 14.3444C19.1112 14.2994 19.1911 14.2285 19.2471 14.1401C19.3031 14.0516 19.333 13.9491 19.3333 13.8444V3.88883C19.3335 3.45627 19.1656 3.04055 18.865 2.72954C18.5643 2.41853 18.1545 2.23659 17.7222 2.22217Z" fill="#DD1836"/>
</g>
<defs>
<clipPath id="clip0_45_1898">
<rect width="20" height="20" fill="white" transform="translate(0.5)"/>
</clipPath>
</defs>
</svg>
