<svg width="21" height="20" viewBox="0 0 21 20" fill="none" xmlns="http://www.w3.org/2000/svg">
<path d="M6.01667 8.99167C7.21667 11.35 9.15 13.275 11.5083 14.4833L13.3417 12.65C13.5667 12.425 13.9 12.35 14.1917 12.45C15.125 12.7583 16.1333 12.925 17.1667 12.925C17.625 12.925 18 13.3 18 13.7583V16.6667C18 17.125 17.625 17.5 17.1667 17.5C9.34167 17.5 3 11.1583 3 3.33333C3 2.875 3.375 2.5 3.83333 2.5H6.75C7.20833 2.5 7.58333 2.875 7.58333 3.33333C7.58333 4.375 7.75 5.375 8.05833 6.30833C8.15 6.6 8.08333 6.925 7.85 7.15833L6.01667 8.99167Z" fill="#DD1836"/>
</svg>
