<svg width="50" height="51" viewBox="0 0 50 51" fill="none" xmlns="http://www.w3.org/2000/svg">
<path d="M25 24.4497C23.2819 24.4497 21.8104 23.8372 20.5854 22.6122C19.3604 21.3872 18.7486 19.9164 18.75 18.1997C18.75 16.4803 19.3618 15.008 20.5854 13.783C21.809 12.5608 23.2805 11.9497 25 11.9497C26.7194 11.9497 28.191 12.5608 29.4146 13.783C30.6382 15.008 31.25 16.4803 31.25 18.1997C31.25 19.9178 30.6382 21.3886 29.4146 22.6122C28.191 23.8358 26.7194 24.4483 25 24.4497ZM10.4167 39.5122V36.0851C10.4167 35.2254 10.6667 34.4212 11.1667 33.6726C11.668 32.9226 12.3417 32.3407 13.1875 31.9268C15.1542 30.9837 17.1215 30.2768 19.0896 29.806C21.059 29.3337 23.0292 29.0976 25 29.0976C26.9722 29.0976 28.9424 29.3337 30.9104 29.806C32.8785 30.2782 34.8451 30.9851 36.8104 31.9268C37.6576 32.3407 38.3312 32.9226 38.8312 33.6726C39.3326 34.4212 39.5833 35.2254 39.5833 36.0851V39.5143L10.4167 39.5122ZM12.5 37.4289H37.5V36.083C37.5 35.6219 37.3514 35.1879 37.0542 34.781C36.7555 34.3754 36.343 34.0324 35.8167 33.7518C34.1028 32.9212 32.3347 32.2851 30.5125 31.8435C28.693 31.4004 26.8555 31.1789 25 31.1789C23.1458 31.1789 21.3083 31.4004 19.4875 31.8435C17.6653 32.2851 15.8972 32.9212 14.1833 33.7518C13.6555 34.0324 13.243 34.3754 12.9458 34.781C12.6486 35.1879 12.5 35.6226 12.5 36.0851V37.4289ZM25 22.3664C26.1458 22.3664 27.1271 21.958 27.9437 21.1414C28.7604 20.3247 29.168 19.3442 29.1667 18.1997C29.1667 17.0539 28.759 16.0726 27.9437 15.256C27.1285 14.4393 26.1472 14.0317 25 14.033C23.8542 14.033 22.8736 14.4407 22.0583 15.256C21.243 16.0712 20.8347 17.0525 20.8333 18.1997C20.8333 19.3455 21.2417 20.3261 22.0583 21.1414C22.875 21.9567 23.8555 22.365 25 22.3664Z" fill="#DD1836"/>
</svg>
