<svg width="26" height="26" viewBox="0 0 26 26" fill="none" xmlns="http://www.w3.org/2000/svg">
<path d="M20.3438 5.61481C19.3888 4.65015 18.2513 3.8853 16.9976 3.36486C15.7439 2.84443 14.3991 2.57883 13.0417 2.58356C7.35419 2.58356 2.71877 7.21897 2.71877 12.9065C2.71877 14.7294 3.19794 16.5002 4.09377 18.0627L2.63544 23.4169L8.10419 21.9794C9.6146 22.8023 11.3125 23.2398 13.0417 23.2398C18.7292 23.2398 23.3646 18.6044 23.3646 12.9169C23.3646 10.1565 22.2917 7.56272 20.3438 5.61481ZM13.0417 21.4898C11.5 21.4898 9.9896 21.0731 8.66669 20.2919L8.35419 20.1044L5.10419 20.9586L5.96877 17.7919L5.76044 17.469C4.90392 16.1012 4.44912 14.5203 4.44794 12.9065C4.44794 8.17731 8.3021 4.32314 13.0313 4.32314C15.3229 4.32314 17.4792 5.21898 19.0938 6.84398C19.8932 7.63977 20.5268 8.58633 20.9577 9.62879C21.3887 10.6713 21.6084 11.7889 21.6042 12.9169C21.625 17.6461 17.7709 21.4898 13.0417 21.4898ZM17.75 15.0731C17.4896 14.9481 16.2188 14.3231 15.9896 14.2294C15.75 14.1461 15.5834 14.1044 15.4063 14.3544C15.2292 14.6148 14.7396 15.1981 14.5938 15.3648C14.4479 15.5419 14.2917 15.5627 14.0313 15.4273C13.7709 15.3023 12.9375 15.0211 11.9584 14.1461C11.1875 13.4586 10.6771 12.6148 10.5209 12.3544C10.375 12.094 10.5 11.9586 10.6354 11.8231C10.75 11.7086 10.8959 11.5211 11.0209 11.3752C11.1459 11.2294 11.1979 11.1148 11.2813 10.9481C11.3646 10.7711 11.3229 10.6252 11.2604 10.5002C11.1979 10.3752 10.6771 9.10439 10.4688 8.58356C10.2604 8.08356 10.0417 8.14606 9.88544 8.13564H9.38544C9.20835 8.13564 8.93752 8.19814 8.69794 8.45856C8.46877 8.71897 7.8021 9.34397 7.8021 10.6148C7.8021 11.8856 8.72919 13.1148 8.85419 13.2815C8.97919 13.4586 10.6771 16.0627 13.2604 17.1773C13.875 17.4481 14.3542 17.6044 14.7292 17.719C15.3438 17.9169 15.9063 17.8856 16.3542 17.8231C16.8542 17.7502 17.8854 17.1981 18.0938 16.594C18.3125 15.9898 18.3125 15.4794 18.2396 15.3648C18.1667 15.2502 18.0104 15.1981 17.75 15.0731Z" fill="#DD1836"/>
</svg>
