<svg width="28" height="29" viewBox="0 0 28 29" fill="none" xmlns="http://www.w3.org/2000/svg">
<g id="tabler:mail-filled" clip-path="url(#clip0_45_2211)">
<g id="Group">
<path id="Vector" d="M25.6667 9.00293V20.0454C25.6667 20.9382 25.3256 21.7972 24.7132 22.4467C24.1007 23.0963 23.2632 23.4872 22.372 23.5396L22.1667 23.5454H5.83333C4.94059 23.5455 4.08156 23.2044 3.43203 22.5919C2.78249 21.9795 2.39154 21.142 2.33917 20.2508L2.33333 20.0454V9.00293L13.3525 16.3494L13.4878 16.4264C13.6473 16.5044 13.8225 16.5449 14 16.5449C14.1775 16.5449 14.3527 16.5044 14.5122 16.4264L14.6475 16.3494L25.6667 9.00293Z" fill="white"/>
<path id="Vector_2" d="M22.1667 4.87891C23.4267 4.87891 24.5315 5.54391 25.1475 6.54374L14 13.9754L2.8525 6.54374C3.14502 6.06864 3.54692 5.67037 4.02466 5.38219C4.5024 5.094 5.04214 4.92424 5.59883 4.88707L5.83333 4.87891H22.1667Z" fill="white"/>
</g>
</g>
<defs>
<clipPath id="clip0_45_2211">
<rect width="28" height="28" fill="white" transform="translate(0 0.211914)"/>
</clipPath>
</defs>
</svg>
