<svg width="32" height="33" viewBox="0 0 32 33" fill="none" xmlns="http://www.w3.org/2000/svg">
<g clip-path="url(#clip0_57_1463)">
<path d="M6.66667 7.39746H29.3333L26.6667 19.3975H9.33333M9.33333 19.3975L5.33333 3.39746H0M9.33333 19.3975L10.6667 24.7308H28M25.3333 31.3975C24.9797 31.3975 24.6406 31.257 24.3905 31.0069C24.1405 30.7569 24 30.4178 24 30.0641C24 29.7105 24.1405 29.3714 24.3905 29.1213C24.6406 28.8713 24.9797 28.7308 25.3333 28.7308C25.687 28.7308 26.0261 28.8713 26.2761 29.1213C26.5262 29.3714 26.6667 29.7105 26.6667 30.0641C26.6667 30.4178 26.5262 30.7569 26.2761 31.0069C26.0261 31.257 25.687 31.3975 25.3333 31.3975ZM12 31.3975C11.6464 31.3975 11.3072 31.257 11.0572 31.0069C10.8071 30.7569 10.6667 30.4178 10.6667 30.0641C10.6667 29.7105 10.8071 29.3714 11.0572 29.1213C11.3072 28.8713 11.6464 28.7308 12 28.7308C12.3536 28.7308 12.6928 28.8713 12.9428 29.1213C13.1929 29.3714 13.3333 29.7105 13.3333 30.0641C13.3333 30.4178 13.1929 30.7569 12.9428 31.0069C12.6928 31.257 12.3536 31.3975 12 31.3975Z" stroke="#DD1836" stroke-width="2.66667"/>
</g>
<defs>
<clipPath id="clip0_57_1463">
<rect width="32" height="32" fill="white" transform="translate(0 0.730957)"/>
</clipPath>
</defs>
</svg>
