<svg width="38" height="39" viewBox="0 0 38 39" fill="none" xmlns="http://www.w3.org/2000/svg">
<g clip-path="url(#clip0_211_1465)">
<path d="M19 0.211914C13.8439 0.211914 13.1955 0.235664 11.1696 0.325914C9.14375 0.420914 7.76387 0.739164 6.555 1.20941C5.28638 1.68519 4.13759 2.43349 3.18963 3.40154C2.22157 4.3495 1.47327 5.49829 0.9975 6.76691C0.52725 7.97341 0.206625 9.35566 0.114 11.3744C0.02375 13.405 0 14.051 0 19.2143C0 24.3728 0.02375 25.0188 0.114 27.0447C0.209 29.0682 0.52725 30.448 0.9975 31.6569C1.48437 32.9062 2.13275 33.9654 3.18963 35.0223C4.24413 36.0792 5.30338 36.7299 6.55263 37.2144C7.76388 37.6847 9.14138 38.0053 11.1649 38.0979C13.1931 38.1882 13.8391 38.2119 19 38.2119C24.1609 38.2119 24.8045 38.1882 26.8328 38.0979C28.8539 38.0029 30.2385 37.6847 31.4474 37.2144C32.7151 36.7383 33.8631 35.9901 34.8104 35.0223C35.8672 33.9654 36.5156 32.9062 37.0025 31.6569C37.4704 30.448 37.791 29.0682 37.886 27.0447C37.9762 25.0188 38 24.3728 38 19.2119C38 14.051 37.9762 13.405 37.886 11.3768C37.791 9.35566 37.4704 7.97341 37.0025 6.76691C36.5267 5.49829 35.7784 4.3495 34.8104 3.40154C33.8624 2.43349 32.7136 1.68519 31.445 1.20941C30.2337 0.739164 28.8515 0.418539 26.8304 0.325914C24.8021 0.235664 24.1585 0.211914 18.9953 0.211914H19ZM17.2971 3.63666H19.0024C24.0754 3.63666 24.6762 3.65329 26.6784 3.74591C28.5309 3.82904 29.5379 4.14016 30.2076 4.39904C31.0935 4.74341 31.7276 5.15666 32.3926 5.82166C33.0576 6.48666 33.4685 7.11841 33.8129 8.00666C34.0741 8.67404 34.3829 9.68104 34.466 11.5335C34.5586 13.5357 34.5776 14.1365 34.5776 19.2072C34.5776 24.2778 34.5586 24.881 34.466 26.8832C34.3829 28.7357 34.0718 29.7403 33.8129 30.41C33.5061 31.2339 33.0202 31.9794 32.3902 32.5927C31.7252 33.2577 31.0935 33.6685 30.2053 34.0129C29.5403 34.2742 28.5332 34.5829 26.6784 34.6684C24.6762 34.7587 24.0754 34.78 19.0024 34.78C13.9294 34.78 13.3261 34.7587 11.324 34.6684C9.4715 34.5829 8.46687 34.2742 7.79712 34.0129C6.9726 33.7071 6.2263 33.222 5.61212 32.5927C4.98102 31.979 4.49428 31.2326 4.18713 30.4077C3.92825 29.7403 3.61713 28.7333 3.534 26.8808C3.44375 24.8787 3.42475 24.2778 3.42475 19.2024C3.42475 14.127 3.44375 13.5309 3.534 11.5288C3.6195 9.67629 3.92825 8.66929 4.1895 7.99954C4.53388 7.11366 4.94712 6.47954 5.61212 5.81454C6.27712 5.14954 6.90887 4.73866 7.79712 4.39429C8.46687 4.13304 9.4715 3.82429 11.324 3.73879C13.0768 3.65804 13.756 3.63429 17.2971 3.63191V3.63666ZM29.1436 6.79066C28.8442 6.79066 28.5477 6.84964 28.2711 6.96422C27.9945 7.0788 27.7431 7.24674 27.5314 7.45846C27.3197 7.67018 27.1518 7.92152 27.0372 8.19815C26.9226 8.47477 26.8636 8.77125 26.8636 9.07066C26.8636 9.37008 26.9226 9.66656 27.0372 9.94318C27.1518 10.2198 27.3197 10.4712 27.5314 10.6829C27.7431 10.8946 27.9945 11.0625 28.2711 11.1771C28.5477 11.2917 28.8442 11.3507 29.1436 11.3507C29.7483 11.3507 30.3282 11.1105 30.7558 10.6829C31.1834 10.2553 31.4236 9.67536 31.4236 9.07066C31.4236 8.46597 31.1834 7.88604 30.7558 7.45846C30.3282 7.03088 29.7483 6.79066 29.1436 6.79066ZM19.0024 9.45541C17.7082 9.43522 16.4229 9.67269 15.2213 10.154C14.0198 10.6353 12.926 11.3508 12.0036 12.2589C11.0812 13.167 10.3487 14.2495 9.84875 15.4434C9.34876 16.6373 9.09126 17.9187 9.09126 19.2131C9.09126 20.5075 9.34876 21.7889 9.84875 22.9828C10.3487 24.1767 11.0812 25.2592 12.0036 26.1673C12.926 27.0754 14.0198 27.7909 15.2213 28.2722C16.4229 28.7535 17.7082 28.991 19.0024 28.9708C21.5639 28.9308 24.007 27.8852 25.8043 26.0596C27.6016 24.2341 28.609 21.7749 28.609 19.2131C28.609 16.6513 27.6016 14.1921 25.8043 12.3666C24.007 10.541 21.5639 9.49538 19.0024 9.45541ZM19.0024 12.8778C19.8342 12.8778 20.6578 13.0416 21.4263 13.3599C22.1948 13.6783 22.8931 14.1448 23.4813 14.733C24.0695 15.3212 24.536 16.0195 24.8543 16.7879C25.1727 17.5564 25.3365 18.3801 25.3365 19.2119C25.3365 20.0437 25.1727 20.8674 24.8543 21.6359C24.536 22.4044 24.0695 23.1026 23.4813 23.6908C22.8931 24.279 22.1948 24.7456 21.4263 25.0639C20.6578 25.3822 19.8342 25.546 19.0024 25.546C17.3225 25.546 15.7114 24.8787 14.5235 23.6908C13.3356 22.5029 12.6683 20.8918 12.6683 19.2119C12.6683 17.532 13.3356 15.9209 14.5235 14.733C15.7114 13.5451 17.3225 12.8778 19.0024 12.8778Z" fill="white"/>
</g>
<defs>
<clipPath id="clip0_211_1465">
<rect width="38" height="38" fill="white" transform="translate(0 0.211914)"/>
</clipPath>
</defs>
</svg>
