<svg width="28" height="29" viewBox="0 0 28 29" fill="none" xmlns="http://www.w3.org/2000/svg">
<g id="mdi:phone">
<path id="Vector" d="M7.72333 12.8002C9.40333 16.1019 12.11 18.8086 15.4117 20.4886L17.9783 17.9219C18.305 17.5952 18.76 17.5019 19.1683 17.6302C20.475 18.0619 21.875 18.2952 23.3333 18.2952C23.6428 18.2952 23.9395 18.4182 24.1583 18.637C24.3771 18.8557 24.5 19.1525 24.5 19.4619V23.5452C24.5 23.8547 24.3771 24.1514 24.1583 24.3702C23.9395 24.589 23.6428 24.7119 23.3333 24.7119C18.0732 24.7119 13.0285 22.6223 9.30905 18.9029C5.58958 15.1834 3.5 10.1387 3.5 4.87858C3.5 4.56916 3.62292 4.27242 3.84171 4.05362C4.0605 3.83483 4.35725 3.71191 4.66667 3.71191H8.75C9.05942 3.71191 9.35616 3.83483 9.57496 4.05362C9.79375 4.27242 9.91667 4.56916 9.91667 4.87858C9.91667 6.33691 10.15 7.73691 10.5817 9.04358C10.71 9.45191 10.6167 9.90691 10.29 10.2336L7.72333 12.8002Z" fill="white"/>
</g>
</svg>
