<svg width="28" height="29" viewBox="0 0 28 29" fill="none" xmlns="http://www.w3.org/2000/svg">
<g id="mdi:whatsapp">
<path id="Vector" d="M14.0467 2.54499C7.67667 2.54499 2.485 7.73666 2.485 14.1067C2.485 16.1483 3.02167 18.1317 4.025 19.8817L2.39167 25.8783L8.51667 24.2683C10.2083 25.19 12.11 25.68 14.0467 25.68C20.4167 25.68 25.6083 20.4883 25.6083 14.1183C25.6083 11.0267 24.4067 8.12166 22.225 5.93999C21.1554 4.85957 19.8814 4.00294 18.4772 3.42005C17.0731 2.83716 15.567 2.5397 14.0467 2.54499ZM14.0583 4.49332C16.625 4.49332 19.0283 5.49666 20.8483 7.31666C21.7415 8.20957 22.4497 9.27003 22.9322 10.4372C23.4147 11.6044 23.662 12.8553 23.66 14.1183C23.66 19.415 19.3433 23.72 14.0467 23.72C12.32 23.72 10.6283 23.265 9.15833 22.3783L8.80833 22.18L5.16833 23.1367L6.13667 19.59L5.90333 19.2167C4.9396 17.6868 4.42985 15.9148 4.43333 14.1067C4.445 8.80999 8.75 4.49332 14.0583 4.49332ZM9.95167 8.76332C9.765 8.76332 9.45 8.83332 9.18167 9.12499C8.925 9.41666 8.16667 10.1283 8.16667 11.54C8.16667 12.9633 9.205 14.3283 9.33333 14.5267C9.49667 14.725 11.3867 17.6417 14.2917 18.8783C14.98 19.1933 15.5167 19.3683 15.9367 19.4967C16.625 19.7183 17.255 19.6833 17.7567 19.6133C18.3167 19.5317 19.46 18.9133 19.705 18.2367C19.95 17.56 19.95 16.9883 19.88 16.86C19.7983 16.7433 19.6117 16.6733 19.32 16.545C19.0283 16.3817 17.605 15.6817 17.3483 15.5883C17.08 15.495 16.9167 15.4483 16.695 15.7283C16.5083 16.02 15.9483 16.6733 15.785 16.86C15.61 17.0583 15.4467 17.0817 15.1667 16.9417C14.8633 16.79 13.93 16.4867 12.8333 15.5067C11.97 14.7367 11.3983 13.7917 11.2233 13.5C11.0833 13.22 11.2117 13.045 11.3517 12.9167C11.48 12.7883 11.6667 12.5783 11.7833 12.4033C11.935 12.24 11.9817 12.1117 12.075 11.925C12.1683 11.7267 12.1217 11.5633 12.0517 11.4233C11.9817 11.295 11.3983 9.84832 11.1533 9.27666C10.92 8.71666 10.6867 8.78666 10.5 8.77499C10.3367 8.77499 10.15 8.76332 9.95167 8.76332Z" fill="white"/>
</g>
</svg>
