<svg width="70" height="70" viewBox="0 0 70 70" fill="none" xmlns="http://www.w3.org/2000/svg">
<path d="M22.0625 24.1802V19.8677C22.0625 16.4364 23.4256 13.1457 25.8518 10.7195C28.2781 8.29323 31.5688 6.93018 35 6.93018C38.4312 6.93018 41.7219 8.29323 44.1482 10.7195C46.5744 13.1457 47.9375 16.4364 47.9375 19.8677V24.1802M11.2812 24.1802C10.7094 24.1802 10.1609 24.4074 9.75655 24.8117C9.35218 25.2161 9.125 25.7646 9.125 26.3364V55.4458C9.125 59.5211 12.5966 62.9927 16.6719 62.9927H53.3281C57.4034 62.9927 60.875 59.6896 60.875 55.6143V26.3364C60.875 25.7646 60.6478 25.2161 60.2435 24.8117C59.8391 24.4074 59.2906 24.1802 58.7188 24.1802H11.2812Z" stroke="#333333" stroke-width="5" stroke-linecap="round" stroke-linejoin="round"/>
<path d="M22.0625 30.6489V32.8052C22.0625 36.2364 23.4256 39.5271 25.8518 41.9534C28.2781 44.3796 31.5688 45.7427 35 45.7427C38.4312 45.7427 41.7219 44.3796 44.1482 41.9534C46.5744 39.5271 47.9375 36.2364 47.9375 32.8052V30.6489" stroke="#333333" stroke-width="5" stroke-linecap="round" stroke-linejoin="round"/>
</svg>
