<svg width="70" height="71" viewBox="0 0 70 71" fill="none" xmlns="http://www.w3.org/2000/svg">
<g clip-path="url(#clip0_327_2366)">
<path d="M43.7499 9.21143C45.297 9.21143 46.7807 9.82601 47.8747 10.92C48.9687 12.0139 49.5833 13.4977 49.5833 15.0448V26.7114H55.4166C56.9637 26.7114 58.4474 27.326 59.5414 28.42C60.6353 29.5139 61.2499 30.9977 61.2499 32.5448V55.8781C62.0235 55.8781 62.7653 56.1854 63.3123 56.7324C63.8593 57.2793 64.1666 58.0212 64.1666 58.7948C64.1666 59.5683 63.8593 60.3102 63.3123 60.8572C62.7653 61.4041 62.0235 61.7114 61.2499 61.7114H8.74992C7.97637 61.7114 7.2345 61.4041 6.68752 60.8572C6.14054 60.3102 5.83325 59.5683 5.83325 58.7948C5.83325 58.0212 6.14054 57.2793 6.68752 56.7324C7.2345 56.1854 7.97637 55.8781 8.74992 55.8781V26.7114C8.74992 25.1643 9.3645 23.6806 10.4585 22.5866C11.5524 21.4927 13.0362 20.8781 14.5833 20.8781H20.4166V15.0448C20.4166 13.4977 21.0312 12.0139 22.1251 10.92C23.2191 9.82601 24.7028 9.21143 26.2499 9.21143H43.7499ZM20.4166 26.7114H14.5833V55.8781H20.4166V26.7114ZM55.4166 32.5448H49.5833V55.8781H55.4166V32.5448ZM43.7499 15.0448H26.2499V55.8781H43.7499V15.0448ZM37.9166 44.2114V50.0448H32.0833V44.2114H37.9166ZM37.9166 32.5448V38.3781H32.0833V32.5448H37.9166ZM37.9166 20.8781V26.7114H32.0833V20.8781H37.9166Z" fill="#333333"/>
</g>
<defs>
<clipPath id="clip0_327_2366">
<rect width="70" height="70" fill="white" transform="translate(0 0.461426)"/>
</clipPath>
</defs>
</svg>
