<svg width="32" height="33" viewBox="0 0 32 33" fill="none" xmlns="http://www.w3.org/2000/svg">
<path d="M5.33341 27.1283C4.60008 27.1283 3.97253 26.8674 3.45075 26.3456C2.92897 25.8238 2.66764 25.1958 2.66675 24.4616V8.46159C2.66675 7.72826 2.92808 7.1007 3.45075 6.57892C3.97341 6.05714 4.60097 5.79581 5.33341 5.79492H26.6667C27.4001 5.79492 28.0281 6.05625 28.5507 6.57892C29.0734 7.10159 29.3343 7.72914 29.3334 8.46159V24.4616C29.3334 25.1949 29.0725 25.8229 28.5507 26.3456C28.029 26.8683 27.401 27.1291 26.6667 27.1283H5.33341ZM16.0001 17.7949L5.33341 11.1283V24.4616H26.6667V11.1283L16.0001 17.7949ZM16.0001 15.1283L26.6667 8.46159H5.33341L16.0001 15.1283ZM5.33341 11.1283V8.46159V24.4616V11.1283Z" fill="black"/>
</svg>
