<svg width="70" height="71" viewBox="0 0 70 71" fill="none" xmlns="http://www.w3.org/2000/svg">
<path d="M54.5999 43.5116C55.6207 41.0325 56.1749 38.3783 56.1749 35.4616C56.1749 33.3616 55.8541 31.3491 55.2999 29.4825C53.4041 29.92 51.4207 30.1533 49.3499 30.1533C45.109 30.1578 40.9291 29.1427 37.1627 27.1935C33.3963 25.2443 30.1537 22.4182 27.7082 18.9533C25.0923 25.283 20.1574 30.3744 13.9124 33.1866C13.7958 33.9158 13.7958 34.7033 13.7958 35.4616C13.7958 38.2462 14.3442 41.0035 15.4098 43.5761C16.4754 46.1487 18.0373 48.4862 20.0063 50.4552C23.9829 54.4318 29.3762 56.6658 34.9999 56.6658C38.0624 56.6658 41.0082 55.995 43.6624 54.7991C45.3249 57.9783 46.0832 59.5533 46.0249 59.5533C41.2416 61.1575 37.5374 61.945 34.9999 61.945C27.9416 61.945 21.2041 59.1741 16.2458 54.1866C13.2299 51.1801 10.9881 47.4871 9.71242 43.4241H5.83325V30.1533H9.01242C9.97562 25.4648 12.1901 21.1245 15.4209 17.5929C18.6517 14.0614 22.7782 11.4703 27.3627 10.0947C31.9472 8.71902 36.8186 8.61012 41.4599 9.77951C46.1013 10.9489 50.3395 13.353 53.7249 16.7366C57.4006 20.3978 59.9077 25.0669 60.9291 30.1533H64.1666V43.4241H63.9916L53.6082 52.9616L38.1499 51.2116V46.3408H52.2374L54.5999 43.5116ZM27.0374 34.7908C27.9124 34.7908 28.7582 35.1408 29.3707 35.7825C29.9863 36.403 30.3317 37.2417 30.3317 38.1158C30.3317 38.9899 29.9863 39.8285 29.3707 40.4491C28.7582 41.0616 27.9124 41.4116 27.0374 41.4116C25.1999 41.4116 23.7124 39.9533 23.7124 38.1158C23.7124 36.2783 25.1999 34.7908 27.0374 34.7908ZM42.9332 34.7908C44.7707 34.7908 46.2291 36.2783 46.2291 38.1158C46.2291 39.9533 44.7707 41.4116 42.9332 41.4116C41.0957 41.4116 39.6082 39.9533 39.6082 38.1158C39.6082 37.2339 39.9586 36.3882 40.5821 35.7647C41.2057 35.1411 42.0514 34.7908 42.9332 34.7908Z" fill="#333333"/>
</svg>
