<svg width="25" height="25" viewBox="0 0 25 25" fill="none" xmlns="http://www.w3.org/2000/svg">
<path d="M5.32667 10.8481C7.24667 14.6214 10.34 17.7148 14.1133 19.6348L17.0467 16.7014C17.42 16.3281 17.94 16.2214 18.4067 16.3681C19.9 16.8614 21.5 17.1281 23.1667 17.1281C23.5203 17.1281 23.8594 17.2686 24.1095 17.5186C24.3595 17.7687 24.5 18.1078 24.5 18.4614V23.1281C24.5 23.4817 24.3595 23.8209 24.1095 24.0709C23.8594 24.321 23.5203 24.4614 23.1667 24.4614C17.1551 24.4614 11.3897 22.0733 7.13891 17.8225C2.88809 13.5717 0.5 7.80633 0.5 1.79476C0.5 1.44114 0.640476 1.102 0.890524 0.85195C1.14057 0.601902 1.47971 0.461426 1.83333 0.461426H6.5C6.85362 0.461426 7.19276 0.601902 7.44281 0.85195C7.69286 1.102 7.83333 1.44114 7.83333 1.79476C7.83333 3.46143 8.1 5.06143 8.59333 6.55476C8.74 7.02143 8.63333 7.54143 8.26 7.91476L5.32667 10.8481Z" fill="#333333"/>
</svg>
