<svg width="32" height="33" viewBox="0 0 32 33" fill="none" xmlns="http://www.w3.org/2000/svg">
<g clip-path="url(#clip0_327_2308)">
<path d="M0.801824 16.27C0.80108 18.9586 1.50359 21.5838 2.83941 23.8978L0.674072 31.8038L8.76486 29.6823C11.0027 30.9006 13.51 31.5389 16.0579 31.5391H16.0646C24.4757 31.5391 31.3226 24.6947 31.3262 16.282C31.3278 12.2055 29.7417 8.37218 26.86 5.48821C23.9788 2.60449 20.1468 1.01553 16.064 1.01367C7.65181 1.01367 0.805421 7.8577 0.801948 16.27" fill="url(#paint0_linear_327_2308)"/>
<path d="M0.256981 16.265C0.256113 19.0503 0.983802 21.7695 2.36724 24.1662L0.124268 32.3556L8.50517 30.1582C10.8144 31.4172 13.4143 32.081 16.0599 32.082H16.0667C24.7796 32.082 31.8725 24.9914 31.8762 16.2776C31.8777 12.0546 30.2345 8.0835 27.2498 5.09622C24.2648 2.1093 20.2958 0.463162 16.0667 0.461426C7.3523 0.461426 0.260454 7.55104 0.256981 16.265ZM5.24811 23.7535L4.93518 23.2567C3.61971 21.1651 2.92538 18.7479 2.92638 16.266C2.9291 9.02316 8.82355 3.13057 16.0717 3.13057C19.5818 3.13206 22.8805 4.50037 25.3616 6.98298C27.8426 9.46583 29.2078 12.7663 29.2069 16.2766C29.2037 23.5194 23.3091 29.4127 16.0667 29.4127H16.0615C13.7033 29.4115 11.3905 28.7782 9.37351 27.5814L8.89351 27.2968L3.92011 28.6007L5.24811 23.7535Z" fill="url(#paint1_linear_327_2308)"/>
<path d="M12.1153 9.65804C11.8194 9.00031 11.5079 8.98703 11.2265 8.9755C10.9961 8.96558 10.7326 8.96632 10.4694 8.96632C10.206 8.96632 9.77794 9.06542 9.41614 9.46046C9.05397 9.85587 8.03345 10.8114 8.03345 12.7548C8.03345 14.6984 9.44901 16.5766 9.64635 16.8404C9.84393 17.1037 12.3791 21.2196 16.3943 22.803C19.7312 24.1188 20.4103 23.8571 21.1345 23.7911C21.8588 23.7254 23.4717 22.8358 23.8008 21.9134C24.1301 20.9911 24.1301 20.2006 24.0313 20.0353C23.9326 19.8708 23.6692 19.7719 23.2741 19.5744C22.879 19.3769 20.9369 18.4212 20.5748 18.2894C20.2127 18.1576 19.9494 18.0919 19.6859 18.4874C19.4225 18.8824 18.666 19.7719 18.4354 20.0353C18.2051 20.2994 17.9745 20.3323 17.5796 20.1347C17.1843 19.9365 15.9121 19.5199 14.4028 18.1743C13.2285 17.1272 12.4357 15.8342 12.2052 15.4386C11.9748 15.0437 12.1805 14.8296 12.3786 14.6328C12.5561 14.4558 12.7738 14.1715 12.9715 13.941C13.1685 13.7103 13.2342 13.5457 13.3659 13.2822C13.4978 13.0185 13.4318 12.7878 13.3332 12.5903C13.2342 12.3927 12.4666 10.4391 12.1153 9.65804Z" fill="white"/>
</g>
<defs>
<linearGradient id="paint0_linear_327_2308" x1="1533.28" y1="3080.02" x2="1533.28" y2="1.01367" gradientUnits="userSpaceOnUse">
<stop stop-color="#1FAF38"/>
<stop offset="1" stop-color="#60D669"/>
</linearGradient>
<linearGradient id="paint1_linear_327_2308" x1="1587.72" y1="3189.88" x2="1587.72" y2="0.461426" gradientUnits="userSpaceOnUse">
<stop stop-color="#F9F9F9"/>
<stop offset="1" stop-color="white"/>
</linearGradient>
<clipPath id="clip0_327_2308">
<rect width="31.76" height="32" fill="white" transform="translate(0.120117 0.461426)"/>
</clipPath>
</defs>
</svg>
