<svg width="81" height="81" viewBox="0 0 81 81" fill="none" xmlns="http://www.w3.org/2000/svg">
<path d="M70.35 21.6836L42.85 6.6273C42.207 6.2722 41.4845 6.08594 40.75 6.08594C40.0155 6.08594 39.293 6.2722 38.65 6.6273L11.15 21.6836C10.4619 22.0601 9.88766 22.6146 9.48742 23.2892C9.08718 23.9638 8.87566 24.7335 8.875 25.5179V55.4054C8.87566 56.1898 9.08718 56.9596 9.48742 57.6342C9.88766 58.3087 10.4619 58.8633 11.15 59.2398L38.65 74.2961C39.2932 74.6506 40.0156 74.8365 40.75 74.8365C41.4844 74.8365 42.2068 74.6506 42.85 74.2961L70.35 59.2398C71.0381 58.8633 71.6123 58.3087 72.0126 57.6342C72.4128 56.9596 72.6243 56.1898 72.625 55.4054V25.5179C72.6243 24.7335 72.4128 23.9638 72.0126 23.2892C71.6123 22.6146 71.0381 22.0601 70.35 21.6836ZM40.4375 9.9148C40.5295 9.86447 40.6326 9.83809 40.7375 9.83809C40.8424 9.83809 40.9455 9.86447 41.0375 9.9148L67.1594 24.2117L56.5531 30.0148L30.1406 15.5585L40.4375 9.9148ZM38.875 70.1492L12.9375 55.9523C12.8417 55.897 12.7622 55.8172 12.7073 55.7211C12.6524 55.625 12.624 55.5161 12.625 55.4054V27.5429L38.875 41.9179V70.1492ZM14.3406 24.2117L26.2375 17.696L52.6469 32.1523L40.75 38.6617L14.3406 24.2117ZM68.875 55.4054C68.876 55.5161 68.8476 55.625 68.7927 55.7211C68.7378 55.8172 68.6583 55.897 68.5625 55.9523L42.625 70.1492V41.9117L53.875 35.7523V47.9617C53.875 48.459 54.0725 48.9359 54.4242 49.2875C54.7758 49.6391 55.2527 49.8367 55.75 49.8367C56.2473 49.8367 56.7242 49.6391 57.0758 49.2875C57.4275 48.9359 57.625 48.459 57.625 47.9617V33.7023L68.875 27.5429V55.4054Z" fill="#FF0000"/>
</svg>
