<svg width="32" height="33" viewBox="0 0 32 33" fill="none" xmlns="http://www.w3.org/2000/svg">
<path d="M22.25 4.98096C19.625 4.98096 17.3425 6.16471 16 8.14846C14.6575 6.16471 12.375 4.98096 9.75 4.98096C7.76159 4.98327 5.85528 5.77419 4.44926 7.18021C3.04324 8.58624 2.25232 10.4925 2.25 12.481C2.25 16.131 4.525 19.9297 9.0125 23.7697C11.0688 25.5219 13.29 27.0708 15.645 28.3947C15.7541 28.4534 15.8761 28.484 16 28.484C16.1239 28.484 16.2459 28.4534 16.355 28.3947C18.71 27.0708 20.9312 25.5219 22.9875 23.7697C27.475 19.9297 29.75 16.131 29.75 12.481C29.7477 10.4925 28.9568 8.58624 27.5507 7.18021C26.1447 5.77419 24.2384 4.98327 22.25 4.98096ZM16 26.8697C13.9487 25.686 3.75 19.446 3.75 12.481C3.75165 10.8902 4.38433 9.365 5.50919 8.24014C6.63405 7.11528 8.15921 6.48261 9.75 6.48096C12.285 6.48096 14.4137 7.83471 15.3062 10.0147C15.3628 10.1523 15.4589 10.2699 15.5824 10.3527C15.7059 10.4355 15.8513 10.4797 16 10.4797C16.1487 10.4797 16.2941 10.4355 16.4176 10.3527C16.5411 10.2699 16.6372 10.1523 16.6938 10.0147C17.5863 7.83471 19.715 6.48096 22.25 6.48096C23.8408 6.48261 25.366 7.11528 26.4908 8.24014C27.6157 9.365 28.2483 10.8902 28.25 12.481C28.25 19.446 18.0513 25.686 16 26.8697Z" fill="#DD1836"/>
</svg>
